<svg width="20" height="20" viewBox="0 0 20 20" fill="none" xmlns="http://www.w3.org/2000/svg">
<g clip-path="url(#clip0_54569_166)">
<path fill-rule="evenodd" clip-rule="evenodd" d="M9.99982 0C15.5228 0 19.9998 4.58993 19.9998 10.2529C19.9998 14.7819 17.1378 18.624 13.1668 19.981C12.6598 20.082 12.4798 19.7618 12.4798 19.4888C12.4798 19.1508 12.4918 18.0468 12.4918 16.6748C12.4918 15.7188 12.1718 15.0949 11.8128 14.7769C14.0398 14.5229 16.3798 13.6558 16.3798 9.71777C16.3798 8.59777 15.9918 7.68382 15.3498 6.96582C15.4538 6.70682 15.7968 5.66395 15.2518 4.25195C15.2518 4.25195 14.4138 3.97722 12.5048 5.30322C11.7058 5.07622 10.8498 4.96201 9.99982 4.95801C9.14982 4.96201 8.29482 5.07622 7.49682 5.30322C5.58582 3.97722 4.74582 4.25195 4.74582 4.25195C4.20282 5.66395 4.54582 6.70682 4.64882 6.96582C4.00982 7.68382 3.61882 8.59777 3.61882 9.71777C3.61882 13.6458 5.95382 14.5262 8.17482 14.7852C7.88882 15.0412 7.62982 15.4928 7.53982 16.1558C6.96982 16.4178 5.52181 16.8712 4.62981 15.3042C4.62981 15.3042 4.10082 14.3191 3.09682 14.2471C3.09682 14.2471 2.12182 14.2341 3.02882 14.8701C3.02882 14.8701 3.68382 15.1851 4.13882 16.3701C4.13882 16.3701 4.72582 18.2001 7.50782 17.5801C7.51282 18.4371 7.52182 19.2448 7.52182 19.4888C7.52182 19.7598 7.33781 20.0769 6.83881 19.9819C2.86481 18.6269 -0.000183105 14.7829 -0.000183105 10.2529C-0.000183105 4.58993 4.47782 0 9.99982 0Z" fill="#F6F5F4"/>
</g>
<defs>
<clipPath id="clip0_54569_166">
<rect width="20" height="20" fill="white"/>
</clipPath>
</defs>
</svg>
