<svg width="1440" height="1156" viewBox="0 0 1440 1156" fill="none" xmlns="http://www.w3.org/2000/svg">
<mask id="mask0_54535_63" style="mask-type:alpha" maskUnits="userSpaceOnUse" x="-190" y="0" width="1876" height="1489">
<path d="M43 0V1340" stroke="white" stroke-width="2" stroke-dasharray="2 48"/>
<path d="M90 0V1340" stroke="white" stroke-width="2" stroke-dasharray="2 48"/>
<path d="M137 0V1340" stroke="white" stroke-width="2" stroke-dasharray="2 48"/>
<path d="M184 0V1340" stroke="white" stroke-width="2" stroke-dasharray="2 48"/>
<path d="M231 0V1340" stroke="white" stroke-width="2" stroke-dasharray="2 48"/>
<path d="M278 0V1340" stroke="white" stroke-width="2" stroke-dasharray="2 48"/>
<path d="M325 0V1340" stroke="white" stroke-width="2" stroke-dasharray="2 48"/>
<path d="M372 0V1340" stroke="white" stroke-width="2" stroke-dasharray="2 48"/>
<path d="M419 0V1340" stroke="white" stroke-width="2" stroke-dasharray="2 48"/>
<path d="M466 0V1340" stroke="white" stroke-width="2" stroke-dasharray="2 48"/>
<path d="M513 0V1340" stroke="white" stroke-width="2" stroke-dasharray="2 48"/>
<path d="M560 0V1340" stroke="white" stroke-width="2" stroke-dasharray="2 48"/>
<path d="M607 0V1340" stroke="white" stroke-width="2" stroke-dasharray="2 48"/>
<path d="M654 0V1340" stroke="white" stroke-width="2" stroke-dasharray="2 48"/>
<path d="M701 0V1340" stroke="white" stroke-width="2" stroke-dasharray="2 48"/>
<path d="M748 0V1340" stroke="white" stroke-width="2" stroke-dasharray="2 48"/>
<path d="M795 0V1340" stroke="white" stroke-width="2" stroke-dasharray="2 48"/>
<path d="M842 0V1340" stroke="white" stroke-width="2" stroke-dasharray="2 48"/>
<path d="M889 0V1340" stroke="white" stroke-width="2" stroke-dasharray="2 48"/>
<path d="M936 0V1340" stroke="white" stroke-width="2" stroke-dasharray="2 48"/>
<path d="M983 0V1340" stroke="white" stroke-width="2" stroke-dasharray="2 48"/>
<path d="M1030 0V1340" stroke="white" stroke-width="2" stroke-dasharray="2 48"/>
<path d="M1077 0V1340" stroke="white" stroke-width="2" stroke-dasharray="2 48"/>
<path d="M1124 0V1340" stroke="white" stroke-width="2" stroke-dasharray="2 48"/>
<path d="M1171 0V1340" stroke="white" stroke-width="2" stroke-dasharray="2 48"/>
<path d="M1218 0V1340" stroke="white" stroke-width="2" stroke-dasharray="2 48"/>
<path d="M1265 0V1340" stroke="white" stroke-width="2" stroke-dasharray="2 48"/>
<path d="M1312 0V1340" stroke="white" stroke-width="2" stroke-dasharray="2 48"/>
<path d="M1359 0V1340" stroke="white" stroke-width="2" stroke-dasharray="2 48"/>
<path d="M1406 0V1340" stroke="white" stroke-width="2" stroke-dasharray="2 48"/>
</mask>
<g mask="url(#mask0_54535_63)">
<ellipse cx="747.711" cy="603.832" rx="703.284" ry="517.57" fill="url(#paint0_radial_54535_63)" fill-opacity="0.5"/>
</g>
<defs>
<radialGradient id="paint0_radial_54535_63" cx="0" cy="0" r="1" gradientUnits="userSpaceOnUse" gradientTransform="translate(747.711 603.832) rotate(90) scale(517.57 703.284)">
<stop stop-color="white"/>
<stop offset="1" stop-color="white" stop-opacity="0"/>
</radialGradient>
</defs>
</svg>
