<svg width="20" height="17" viewBox="0 0 20 17" fill="none" xmlns="http://www.w3.org/2000/svg">
<path fill-rule="evenodd" clip-rule="evenodd" d="M20 16.3541H16V10.631C16 9.06096 15.153 8.18503 13.634 8.18503C11.981 8.18503 11 9.09776 11 10.631V16.3541H7V5.72393H11V6.91934C11 6.91934 12.255 5.11864 15.083 5.11864C17.912 5.11864 20 6.53027 20 9.45111V16.3541ZM2.442 4.02384C1.093 4.02384 0 3.12278 0 2.01152C0 0.901078 1.093 0 2.442 0C3.79 0 4.883 0.901078 4.883 2.01152C4.884 3.12278 3.79 4.02384 2.442 4.02384ZM0 16.3541H5V5.72393H0V16.3541Z" fill="#F6F5F4"/>
</svg>
